<svg width="13" height="13" viewBox="0 0 13 13" fill="none" xmlns="http://www.w3.org/2000/svg">
<path d="M5.66665 11C6.84996 10.9997 7.99918 10.6036 8.93131 9.87465L11.862 12.8053L12.8046 11.8626L9.87398 8.93198C10.6033 7.99976 10.9997 6.85027 11 5.66665C11 2.72598 8.60731 0.333313 5.66665 0.333313C2.72598 0.333313 0.333313 2.72598 0.333313 5.66665C0.333313 8.60731 2.72598 11 5.66665 11ZM5.66665 1.66665C7.87265 1.66665 9.66665 3.46065 9.66665 5.66665C9.66665 7.87265 7.87265 9.66665 5.66665 9.66665C3.46065 9.66665 1.66665 7.87265 1.66665 5.66665C1.66665 3.46065 3.46065 1.66665 5.66665 1.66665Z" fill="black"/>
</svg>
